<svg id="Layer_1" data-name="Layer 1" xmlns="http://www.w3.org/2000/svg" viewBox="0 0 1080 306.35"><defs><style>.cls-1{fill:#232020;}.cls-2{fill:#c6bec6;}</style></defs><path class="cls-1" d="M144,100.18l-35.95,96-9.74-27.1L79.52,258.55A33.24,33.24,0,1,1,14.88,243L61.79,48a33.23,33.23,0,0,1,34.5-25.38,30.14,30.14,0,0,1,30,21.07Z"/><path class="cls-2" d="M264.1,92,225.58,194.87l-6-23.27-22.36,62.3c-2.52,8.43-11.77,35.44-18.82,39.49a29.13,29.13,0,0,1-9.94,5.37A30.11,30.11,0,0,1,130.69,259l-15.44-43,35.43-94.66,6.83,21.76L187.58,43A33.17,33.17,0,0,1,223,19.54h.17a30.21,30.21,0,0,1,29,22.76Z"/><path class="cls-1" d="M278.41,279.33a30.14,30.14,0,0,1-36.64-21.78l-10.22-39.61L269.78,115.8l30.41,126.9A30.11,30.11,0,0,1,278.41,279.33Z"/><path class="cls-1" d="M532.45,154.66c0,30.08-9.9,55.55-28.62,73.66-18.49,17.88-44.24,27.33-74.47,27.33-61.16,0-102.25-40.58-102.25-101v-4.42h38.54v4.42c0,40.06,24.41,64.94,63.71,64.94,40.14,0,65.07-24.88,65.07-64.94s-24.68-65-64.4-65.21l-4.26,0V53.65l4.3,0C493.22,53.93,532.45,92.63,532.45,154.66Z"/><path class="cls-1" d="M980,56.2H898.87V91H967c46.06,0,57.77,17.79,57.77,61.45,0,43.89-11.14,61.45-57.48,61.45H898.87v35H980c59.7,0,86.06-41.15,86.06-96.37C1066.06,97.07,1040,56.2,980,56.2Z"/><rect class="cls-1" x="558.42" y="52" width="150.47" height="39.03"/><rect class="cls-1" x="558.42" y="130.58" width="150.47" height="39.03"/><rect class="cls-1" x="558.42" y="212.03" width="150.47" height="39.03"/><rect class="cls-1" x="725.28" y="52" width="150.47" height="39.03"/><rect class="cls-1" x="725.28" y="130.58" width="150.47" height="39.03"/><rect class="cls-1" x="725.28" y="212.03" width="150.47" height="39.03"/></svg>